<?xml version="1.0" encoding="UTF-8"?>
<!DOCTYPE svg PUBLIC "-//W3C//DTD SVG 1.1//EN" "http://www.w3.org/Graphics/SVG/1.1/DTD/svg11.dtd">
<!-- Creator: CorelDRAW 2017 -->
<svg xmlns="http://www.w3.org/2000/svg" xml:space="preserve" width="83px" height="83px" version="1.1" shape-rendering="geometricPrecision" text-rendering="geometricPrecision" image-rendering="optimizeQuality" fill-rule="evenodd" clip-rule="evenodd"
viewBox="0 0 0.3 0.3"
 xmlns:xlink="http://www.w3.org/1999/xlink">
 <g id="Capa_x0020_1">
  <metadata id="CorelCorpID_0Corel-Layer"/>
  <g id="_2152073991040">
   <g>
    <path fill="white" d="M0.15 0c-0.08,0 -0.15,0.07 -0.15,0.15 0,0.08 0.07,0.15 0.15,0.15 0.08,0 0.15,-0.07 0.15,-0.15 0,-0.08 -0.07,-0.15 -0.15,-0.15zm0 0.28c-0.07,0 -0.13,-0.06 -0.13,-0.13 0,-0.07 0.06,-0.13 0.13,-0.13 0.07,0 0.13,0.06 0.13,0.13 0,0.07 -0.06,0.13 -0.13,0.13zm0.08 -0.14l-0.07 0 0 -0.07c0,-0.01 -0.01,-0.01 -0.01,-0.01 -0.01,0 -0.01,0 -0.01,0.01l0 0.07 -0.07 0c-0.01,0 -0.01,0 -0.01,0.01 0,0 0,0.01 0.01,0.01l0.07 0 0 0.07c0,0 0,0.01 0.01,0.01 0,0 0.01,-0.01 0.01,-0.01l0 -0.07 0.07 0c0,0 0.01,-0.01 0.01,-0.01 0,-0.01 -0.01,-0.01 -0.01,-0.01z"/>
   </g>
  </g>
 </g>
</svg>
