<?xml version="1.0" encoding="UTF-8"?>
<!DOCTYPE svg PUBLIC "-//W3C//DTD SVG 1.1//EN" "http://www.w3.org/Graphics/SVG/1.1/DTD/svg11.dtd">
<!-- Creator: CorelDRAW 2017 -->
<svg xmlns="http://www.w3.org/2000/svg" xml:space="preserve" width="1179px" height="1179px" version="1.1" shape-rendering="geometricPrecision" text-rendering="geometricPrecision" image-rendering="optimizeQuality" fill-rule="evenodd" clip-rule="evenodd"
viewBox="0 0 66.75 66.75"
 xmlns:xlink="http://www.w3.org/1999/xlink">
 <g id="Capa_x0020_1">
  <metadata id="CorelCorpID_0Corel-Layer"/>
  <path fill="white" fill-rule="nonzero" d="M50.06 4.48c7.98,4.6 13.33,12.01 15.54,20.26 2.21,8.25 1.28,17.34 -3.33,25.32 -4.61,7.98 -12.01,13.33 -20.26,15.54 -8.25,2.21 -17.34,1.28 -25.32,-3.33 -7.98,-4.61 -13.34,-12.01 -15.55,-20.26 -2.21,-8.25 -1.27,-17.34 3.34,-25.32 4.6,-7.98 12.01,-13.34 20.26,-15.55 8.25,-2.21 17.34,-1.27 25.32,3.34zm-10.42 17.03l-6.27 6.74 -6.26 -6.74c-0.92,-1.6 -2.96,-2.14 -4.55,-1.22 -1.59,0.92 -2.14,2.96 -1.22,4.55l6.94 8.53 -6.94 8.54c-0.92,1.59 -0.37,3.63 1.22,4.55 1.59,0.92 3.63,0.37 4.55,-1.22l6.26 -6.74 6.27 6.74c0.92,1.59 2.95,2.14 4.55,1.22 1.59,-0.92 2.13,-2.96 1.21,-4.55l-6.93 -8.54 6.93 -8.53c0.92,-1.59 0.38,-3.63 -1.21,-4.55 -1.6,-0.92 -3.63,-0.38 -4.55,1.22z"/>
 </g>
</svg>
