<?xml version="1.0" encoding="UTF-8"?>
<!DOCTYPE svg PUBLIC "-//W3C//DTD SVG 1.1//EN" "http://www.w3.org/Graphics/SVG/1.1/DTD/svg11.dtd">
<!-- Creator: CorelDRAW 2017 -->
<svg xmlns="http://www.w3.org/2000/svg" xml:space="preserve" width="1179px" height="1179px" version="1.1" shape-rendering="geometricPrecision" text-rendering="geometricPrecision" image-rendering="optimizeQuality" fill-rule="evenodd" clip-rule="evenodd"
viewBox="0 0 76 76"
 xmlns:xlink="http://www.w3.org/1999/xlink">
 <g id="Capa_x0020_1">
  <metadata id="CorelCorpID_0Corel-Layer"/>
  <path fill="white" d="M76 38c0,-10.49 -4.26,-19.99 -11.13,-26.87 -6.88,-6.88 -16.38,-11.13 -26.87,-11.13 -10.49,0 -19.99,4.25 -26.87,11.13 -6.88,6.88 -11.13,16.38 -11.13,26.87 0,10.49 4.25,19.99 11.13,26.87 6.88,6.87 16.38,11.13 26.87,11.13 10.49,0 19.99,-4.26 26.87,-11.13 6.87,-6.88 11.13,-16.38 11.13,-26.87zm-55.12 -0.66c1.49,-1.49 3.9,-1.49 5.38,0l5.58 5.57 17.89 -17.9c1.49,-1.49 3.9,-1.49 5.39,0 1.49,1.49 1.49,3.9 0,5.39l-23.28 23.28 -10.96 -10.96c-1.49,-1.48 -1.49,-3.9 0,-5.38z"/>
 </g>
</svg>
