<?xml version="1.0" encoding="UTF-8"?>
<!DOCTYPE svg PUBLIC "-//W3C//DTD SVG 1.1//EN" "http://www.w3.org/Graphics/SVG/1.1/DTD/svg11.dtd">
<!-- Creator: CorelDRAW 2017 -->
<svg xmlns="http://www.w3.org/2000/svg" xml:space="preserve" width="83px" height="83px" version="1.1" shape-rendering="geometricPrecision" text-rendering="geometricPrecision" image-rendering="optimizeQuality" fill-rule="evenodd" clip-rule="evenodd"
viewBox="0 0 0.31 0.31"
 xmlns:xlink="http://www.w3.org/1999/xlink">
 <g id="Capa_x0020_1">
  <metadata id="CorelCorpID_0Corel-Layer"/>
  <g id="_2431476992368">
   <g>
    <path fill="white" d="M0.19 0.08c-0.01,0 -0.01,0 -0.02,0l-0.06 0.07c-0.01,0 -0.01,0 -0.01,0 0,0.01 0,0.01 0.01,0.01l0.06 0.07c0.01,0 0.01,0 0.02,0 0,-0.01 0,-0.01 0,-0.02l-0.06 -0.06 0.06 -0.06c0,0 0,-0.01 0,-0.01zm-0.04 -0.08c-0.08,0 -0.15,0.07 -0.15,0.15 0,0.09 0.07,0.16 0.15,0.16 0.09,0 0.16,-0.07 0.16,-0.16 0,-0.08 -0.07,-0.15 -0.16,-0.15zm0 0.29c-0.07,0 -0.13,-0.06 -0.13,-0.14 0,-0.07 0.06,-0.13 0.13,-0.13 0.08,0 0.14,0.06 0.14,0.13 0,0.08 -0.06,0.14 -0.14,0.14z"/>
   </g>
  </g>
 </g>
</svg>
