<?xml version="1.0" encoding="UTF-8"?>
<!DOCTYPE svg PUBLIC "-//W3C//DTD SVG 1.1//EN" "http://www.w3.org/Graphics/SVG/1.1/DTD/svg11.dtd">
<!-- Creator: CorelDRAW 2017 -->
<svg xmlns="http://www.w3.org/2000/svg" xml:space="preserve" width="89px" height="64px" version="1.1" shape-rendering="geometricPrecision" text-rendering="geometricPrecision" image-rendering="optimizeQuality" fill-rule="evenodd" clip-rule="evenodd"
viewBox="0 0 0.42 0.3"
 xmlns:xlink="http://www.w3.org/1999/xlink">
 <g id="Capa_x0020_1">
  <metadata id="CorelCorpID_0Corel-Layer"/>
  <g id="_2472440820368">
   <g>
    <path fill="white" d="M0.34 0.14c0.03,-0.05 0.01,-0.09 0,-0.1 -0.02,-0.03 -0.05,-0.04 -0.08,-0.04 -0.06,0.01 -0.08,0.05 -0.08,0.12l0 0.06 -0.03 -0.03c0,-0.01 -0.01,-0.01 -0.02,0 0,0 0,0.01 0,0.02l0.06 0.05c0,0 0,0 0.01,0 0,0 0,0 0.01,0l0.05 -0.05c0,-0.01 0,-0.02 0,-0.02 -0.01,-0.01 -0.01,-0.01 -0.02,0l-0.03 0.03 0 -0.06c0,-0.08 0.02,-0.09 0.05,-0.09 0.02,-0.01 0.04,0 0.06,0.02 0.01,0.03 0.01,0.06 -0.01,0.1 0,0.01 0,0.01 0,0.02 0,0 0.01,0 0.01,0 0,0 0.01,0 0.02,0 0.03,0 0.05,0.02 0.05,0.05 0,0.03 -0.02,0.06 -0.05,0.06l-0.26 0c-0.03,-0.01 -0.05,-0.04 -0.05,-0.07 0,-0.03 0.02,-0.06 0.05,-0.06l0.01 -0.01c0.01,0 0.01,0 0.01,-0.01l0 -0.01c0,-0.05 0.03,-0.09 0.07,-0.09 0.01,-0.01 0.01,-0.01 0.01,-0.02 0,-0.01 0,-0.01 -0.01,-0.01 -0.05,0.01 -0.09,0.06 -0.09,0.12 0,0 0,0 0,0l0 0c-0.05,0.01 -0.08,0.05 -0.08,0.09 0,0.05 0.03,0.08 0.08,0.09l0.26 0c0.04,0 0.08,-0.03 0.08,-0.08 0,-0.04 -0.04,-0.07 -0.08,-0.08z"/>
   </g>
  </g>
 </g>
</svg>
