<?xml version="1.0" encoding="UTF-8"?>
<!DOCTYPE svg PUBLIC "-//W3C//DTD SVG 1.1//EN" "http://www.w3.org/Graphics/SVG/1.1/DTD/svg11.dtd">
<!-- Creator: CorelDRAW 2017 -->
<svg xmlns="http://www.w3.org/2000/svg" xml:space="preserve" width="89px" height="89px" version="1.1" shape-rendering="geometricPrecision" text-rendering="geometricPrecision" image-rendering="optimizeQuality" fill-rule="evenodd" clip-rule="evenodd"
viewBox="0 0 0.4 0.4"
 xmlns:xlink="http://www.w3.org/1999/xlink"
 enable-background="new 0 0 16 16">
 <g id="Capa_x0020_1">
  <metadata id="CorelCorpID_0Corel-Layer"/>
  <g id="_2432991904336">
   <g>
    <path fill="white" d="M0.3 0l-0.05 0 -0.15 0 -0.08 0c-0.01,0 -0.02,0.01 -0.02,0.02l0 0.35c0,0.02 0.01,0.03 0.02,0.03l0.35 0c0.02,0 0.03,-0.01 0.03,-0.03l0 -0.3 -0.08 -0.07 -0.02 0zm0 0.02l0 0.1 -0.05 0 0 -0.1 0.05 0zm-0.08 0l0 0.1 -0.12 0 0 -0.1 0.12 0zm-0.12 0.35l0 -0.15 0.2 0 0 0.15 -0.2 0zm0.27 0l-0.05 0 0 -0.15c0,-0.01 -0.01,-0.02 -0.02,-0.02l-0.2 0c-0.01,0 -0.03,0.01 -0.03,0.02l0 0.15 -0.05 0 0 -0.35 0.05 0 0 0.1c0,0.02 0.02,0.03 0.03,0.03l0.15 0 0.05 0c0.01,0 0.02,-0.01 0.02,-0.03l0 -0.08 0.05 0.05 0 0.28z"/>
   </g>
  </g>
 </g>
</svg>
