<?xml version="1.0" encoding="UTF-8"?>
<!DOCTYPE svg PUBLIC "-//W3C//DTD SVG 1.1//EN" "http://www.w3.org/Graphics/SVG/1.1/DTD/svg11.dtd">
<!-- Creator: CorelDRAW 2017 -->
<svg xmlns="http://www.w3.org/2000/svg" xml:space="preserve" width="83px" height="83px" version="1.1" shape-rendering="geometricPrecision" text-rendering="geometricPrecision" image-rendering="optimizeQuality" fill-rule="evenodd" clip-rule="evenodd"
viewBox="0 0 83 83"
 xmlns:xlink="http://www.w3.org/1999/xlink">
 <g id="Capa_x0020_1">
  <metadata id="CorelCorpID_0Corel-Layer"/>
  <g id="_2002185284976">
   <g>
    <path fill="#95A5A6" d="M41.5 0c-23.06,0 -41.5,18.44 -41.5,41.5 0,23.06 18.44,41.5 41.5,41.5 23.06,0 41.5,-18.44 41.5,-41.5 0,-23.06 -18.44,-41.5 -41.5,-41.5zm0 77.4c-19.76,0 -35.9,-16.14 -35.9,-35.9 0,-19.76 16.14,-35.9 35.9,-35.9 19.76,0 35.9,16.14 35.9,35.9 0,19.76 -16.14,35.9 -35.9,35.9zm4.61 -55.33c4.94,0 9.22,3.62 9.22,8.23 0,1.65 1.32,2.64 2.64,2.64 1.65,0 2.63,-1.32 2.63,-2.64 0,-7.58 -6.58,-13.83 -14.49,-13.83l-1.97 0 0 -2.64c0,-1.65 -1.32,-2.63 -2.64,-2.63 -1.65,0 -2.64,1.31 -2.64,2.63l0 2.64 -1.97 0c-7.91,0 -14.49,6.25 -14.49,13.83 0,7.58 6.58,13.83 14.49,13.83l1.97 0 0 16.47 -1.97 0c-4.94,0 -9.22,-3.62 -9.22,-8.23 0,-1.65 -1.32,-2.64 -2.64,-2.64 -1.65,0 -2.63,1.32 -2.63,2.64 0,7.57 6.58,13.83 14.49,13.83l1.97 0 0 2.64c0,1.64 1.32,2.63 2.64,2.63 1.65,0 2.64,-1.32 2.64,-2.63l0 -2.64 1.97 0c7.91,0 14.49,-6.26 14.49,-13.83 0,-7.58 -6.58,-13.84 -14.49,-13.84l-1.97 0 0 -16.46 1.97 0zm0 22.06c4.94,0 9.22,3.63 9.22,8.24 0,4.61 -3.95,8.23 -9.22,8.23l-1.97 0 0 -16.47 1.97 0 0 0zm-7.57 -5.6l-1.98 0c-4.94,0 -9.22,-3.62 -9.22,-8.23 0,-4.61 3.95,-8.23 9.22,-8.23l1.98 0 0 16.47 0 -0.01z"/>
   </g>
  </g>
 </g>
</svg>
