<?xml version="1.0" encoding="UTF-8"?>
<!DOCTYPE svg PUBLIC "-//W3C//DTD SVG 1.1//EN" "http://www.w3.org/Graphics/SVG/1.1/DTD/svg11.dtd">
<!-- Creator: CorelDRAW 2017 -->
<svg xmlns="http://www.w3.org/2000/svg" xml:space="preserve" width="3.2404mm" height="5.112mm" version="1.1" style="shape-rendering:geometricPrecision; text-rendering:geometricPrecision; image-rendering:optimizeQuality; fill-rule:evenodd; clip-rule:evenodd"
viewBox="0 0 0.59 0.94"
 xmlns:xlink="http://www.w3.org/1999/xlink">
 <defs>
  <style type="text/css">
   <![CDATA[
    .fil0 {fill:#FEFEFE}
   ]]>
  </style>
 </defs>
 <g id="Capa_x0020_1">
  <metadata id="CorelCorpID_0Corel-Layer"/>
  <path class="fil0" d="M0.59 0.64c0,-0.12 -0.1,-0.21 -0.22,-0.21l-0.03 0 0 -0.26 0.03 0c0.08,0 0.14,0.06 0.14,0.13 0,0.02 0.02,0.04 0.04,0.04 0.02,0 0.04,-0.02 0.04,-0.04 0,-0.12 -0.1,-0.21 -0.22,-0.21l-0.03 0 0 -0.04c0,-0.02 -0.02,-0.04 -0.04,-0.04 -0.02,0 -0.04,0.02 -0.04,0.04l0 0.04 -0.03 0c-0.12,0 -0.22,0.1 -0.22,0.21 0,0.12 0.1,0.21 0.22,0.21l0.03 0 0 0.26 -0.03 0c-0.08,0 -0.14,-0.06 -0.14,-0.13 0,-0.02 -0.02,-0.04 -0.04,-0.04 -0.02,0 -0.04,0.02 -0.04,0.04 0,0.12 0.1,0.21 0.22,0.21l0.03 0 0 0.04c0,0.02 0.02,0.04 0.04,0.04 0.02,0 0.04,-0.02 0.04,-0.04l0 -0.04 0.03 0c0.12,0 0.22,-0.1 0.22,-0.21zm-0.22 -0.13c0.08,0 0.14,0.06 0.14,0.13 0,0.07 -0.07,0.13 -0.14,0.13l-0.03 0 0 -0.26 0.03 0zm-0.11 -0.34l0 0.26 -0.03 0c-0.08,0 -0.14,-0.06 -0.14,-0.13 0,-0.07 0.07,-0.13 0.14,-0.13l0.03 0z"/>
 </g>
</svg>
