<?xml version="1.0" encoding="UTF-8"?>
<!DOCTYPE svg PUBLIC "-//W3C//DTD SVG 1.1//EN" "http://www.w3.org/Graphics/SVG/1.1/DTD/svg11.dtd">
<!-- Creator: CorelDRAW 2017 -->
<svg xmlns="http://www.w3.org/2000/svg" xml:space="preserve" width="2.3465mm" height="3.4131mm" version="1.1" style="shape-rendering:geometricPrecision; text-rendering:geometricPrecision; image-rendering:optimizeQuality; fill-rule:evenodd; clip-rule:evenodd"
viewBox="0 0 0.31 0.45"
 xmlns:xlink="http://www.w3.org/1999/xlink">
 <defs>
  <style type="text/css">
   <![CDATA[
    .fil0 {fill:#FEFEFE}
   ]]>
  </style>
 </defs>
 <g id="Capa_x0020_1">
  <metadata id="CorelCorpID_0Corel-Layer"/>
  <path class="fil0" d="M0.28 0.03l-0.06 0c0,-0.02 -0.01,-0.03 -0.03,-0.03l-0.08 0c-0.02,0 -0.03,0.01 -0.03,0.03l-0.06 0c-0.02,0 -0.03,0.01 -0.03,0.03l0.31 0c0,-0.02 -0.01,-0.03 -0.03,-0.03zm-0.28 0.39c0,0.02 0.01,0.03 0.03,0.03l0.25 0c0.02,0 0.03,-0.01 0.03,-0.03l-0 -0.34 -0.31 0 0 0.34zm0.03 -0.31l0.25 0 0 0.31 -0.25 0 0 -0.31zm0.04 0.03c-0.01,0 -0.01,0.01 -0.01,0.01l0 0.23c0,0.01 0.01,0.01 0.01,0.01 0.01,0 0.01,-0.01 0.01,-0.01l0 -0.23c0,-0.01 -0.01,-0.01 -0.01,-0.01zm0.08 0c-0.01,0 -0.01,0.01 -0.01,0.01l0 0.23c0,0.01 0.01,0.01 0.01,0.01 0.01,0 0.01,-0.01 0.01,-0.01l0 -0.23c0,-0.01 -0.01,-0.01 -0.01,-0.01zm0.08 0c-0.01,0 -0.01,0.01 -0.01,0.01l0 0.23c0,0.01 0.01,0.01 0.01,0.01 0.01,0 0.01,-0.01 0.01,-0.01l0 -0.23c0,-0.01 -0.01,-0.01 -0.01,-0.01z"/>
 </g>
</svg>
